<svg xmlns="http://www.w3.org/2000/svg" version="1.1" width="800px" height="800px" style="shape-rendering:geometricPrecision; text-rendering:geometricPrecision; image-rendering:optimizeQuality; fill-rule:evenodd; clip-rule:evenodd" xmlns:xlink="http://www.w3.org/1999/xlink">
<g><path style="opacity:1" fill="#000" d="M -0.5,-0.5 C 266.167,-0.5 532.833,-0.5 799.5,-0.5C 799.5,266.167 799.5,532.833 799.5,799.5C 532.833,799.5 266.167,799.5 -0.5,799.5C -0.5,532.833 -0.5,266.167 -0.5,-0.5 Z"/></g>
<g><path style="opacity:1" fill="#000" d="M 206.5,354.5 C 224.993,353.503 243.659,353.17 262.5,353.5C 262.784,355.415 262.451,357.081 261.5,358.5C 261.5,357.167 261.5,355.833 261.5,354.5C 243.167,354.5 224.833,354.5 206.5,354.5 Z"/></g>
<g><path style="opacity:1" fill="#000" d="M 289.5,354.5 C 300.654,353.505 311.988,353.172 323.5,353.5C 323.784,355.415 323.451,357.081 322.5,358.5C 322.5,357.167 322.5,355.833 322.5,354.5C 311.5,354.5 300.5,354.5 289.5,354.5 Z"/></g>
<g><path style="opacity:1" fill="#f5fff8" d="M 76.5,353.5 C 91.1667,353.5 105.833,353.5 120.5,353.5C 120.5,355.167 120.5,356.833 120.5,358.5C 105.496,358.333 90.4963,358.5 75.5,359C 68.9377,363.599 67.7711,369.432 72,376.5C 73.4194,377.46 74.9194,378.293 76.5,379C 87.5,379.333 98.5,379.667 109.5,380C 119.061,384.291 122.227,391.458 119,401.5C 117.108,405.058 114.275,407.558 110.5,409C 95.1703,409.5 79.837,409.667 64.5,409.5C 64.5,408.167 64.5,406.833 64.5,405.5C 78.8372,405.667 93.1705,405.5 107.5,405C 114.836,402.832 117.336,397.999 115,390.5C 113.833,388 112,386.167 109.5,385C 98.5,384.667 87.5,384.333 76.5,384C 66.1751,380.183 62.6751,373.017 66,362.5C 68.4888,358.168 71.9888,355.168 76.5,353.5 Z"/></g>
<g><path style="opacity:1" fill="#fefffe" d="M 206.5,354.5 C 224.833,354.5 243.167,354.5 261.5,354.5C 261.5,355.833 261.5,357.167 261.5,358.5C 243.167,358.5 224.833,358.5 206.5,358.5C 206.5,357.167 206.5,355.833 206.5,354.5 Z"/></g>
<g><path style="opacity:1" fill="#f9fffb" d="M 289.5,354.5 C 300.5,354.5 311.5,354.5 322.5,354.5C 322.5,355.833 322.5,357.167 322.5,358.5C 310.424,358.062 298.424,358.562 286.5,360C 271.704,368.394 268.204,380.227 276,395.5C 279.21,399.187 283.044,402.021 287.5,404C 299.424,405.438 311.424,405.938 323.5,405.5C 323.5,406.833 323.5,408.167 323.5,409.5C 311.829,409.667 300.162,409.5 288.5,409C 271.068,402.305 264.568,389.805 269,371.5C 272.984,362.345 279.817,356.679 289.5,354.5 Z"/></g>
<g><path style="opacity:1" fill="#f5fff8" d="M 337.5,353.5 C 352.17,353.333 366.837,353.5 381.5,354C 392.693,358.579 395.86,366.413 391,377.5C 389.5,379 388,380.5 386.5,382C 394.993,389.293 395.66,397.293 388.5,406C 386.833,407 385.167,408 383.5,409C 368.17,409.5 352.837,409.667 337.5,409.5C 337.5,408.167 337.5,406.833 337.5,405.5C 351.837,405.667 366.171,405.5 380.5,405C 388.337,401.816 390.504,396.316 387,388.5C 385.786,386.951 384.286,385.785 382.5,385C 367.504,384.5 352.504,384.333 337.5,384.5C 337.5,382.833 337.5,381.167 337.5,379.5C 352.17,379.667 366.837,379.5 381.5,379C 388.975,374.845 390.475,369.012 386,361.5C 384.352,360.283 382.519,359.45 380.5,359C 366.171,358.5 351.837,358.333 337.5,358.5C 337.5,356.833 337.5,355.167 337.5,353.5 Z"/></g>
<g><path style="opacity:1" fill="#f6fff8" d="M 426.5,353.5 C 449.704,353.202 460.87,364.535 460,387.5C 454.681,404.416 443.181,411.583 425.5,409C 410.454,403.418 403.62,392.584 405,376.5C 408.256,365.08 415.423,357.414 426.5,353.5 Z"/></g>
<g><path style="opacity:1" fill="#f5fff7" d="M 468.5,353.5 C 470.527,353.338 472.527,353.505 474.5,354C 481.685,361.684 488.685,369.518 495.5,377.5C 502.989,369.844 510.322,362.01 517.5,354C 519.5,353.333 521.5,353.333 523.5,354C 515.686,363.315 507.686,372.481 499.5,381.5C 506.941,391.111 514.941,400.277 523.5,409C 521.167,409.667 518.833,409.667 516.5,409C 509.785,401.073 502.951,393.24 496,385.5C 488.981,393.018 482.148,400.685 475.5,408.5C 473.235,409.647 470.902,409.814 468.5,409C 476.618,399.927 484.618,390.76 492.5,381.5C 484.08,372.422 476.08,363.089 468.5,353.5 Z"/></g>
<g><path style="opacity:1" fill="#84ffa8" d="M 542.5,354.5 C 541.167,354.5 539.833,354.5 538.5,354.5C 538.5,372.833 538.5,391.167 538.5,409.5C 537.503,391.007 537.17,372.341 537.5,353.5C 539.415,353.216 541.081,353.549 542.5,354.5 Z"/></g>
<g><path style="opacity:1" fill="#fbfffc" d="M 542.5,354.5 C 542.5,362.833 542.5,371.167 542.5,379.5C 558.167,379.5 573.833,379.5 589.5,379.5C 589.5,371.167 589.5,362.833 589.5,354.5C 590.833,354.5 592.167,354.5 593.5,354.5C 593.5,372.833 593.5,391.167 593.5,409.5C 592.167,409.5 590.833,409.5 589.5,409.5C 589.5,401.167 589.5,392.833 589.5,384.5C 573.833,384.5 558.167,384.5 542.5,384.5C 542.5,392.833 542.5,401.167 542.5,409.5C 541.167,409.5 539.833,409.5 538.5,409.5C 538.5,391.167 538.5,372.833 538.5,354.5C 539.833,354.5 541.167,354.5 542.5,354.5 Z"/></g>
<g><path style="opacity:1" fill="#f9fffa" d="M 659.5,354.5 C 660.833,354.5 662.167,354.5 663.5,354.5C 663.5,364.833 663.5,375.167 663.5,385.5C 659.326,403.437 647.993,411.27 629.5,409C 618.263,406.021 611.429,398.854 609,387.5C 608.5,376.172 608.333,364.838 608.5,353.5C 609.833,353.5 611.167,353.5 612.5,353.5C 612.085,365.562 612.585,377.562 614,389.5C 622.039,405.18 633.872,409.013 649.5,401C 653.092,398.079 655.925,394.579 658,390.5C 659.438,378.576 659.938,366.576 659.5,354.5 Z"/></g>
<g><path style="opacity:1" fill="#bfffd2" d="M 659.5,354.5 C 660.919,353.549 662.585,353.216 664.5,353.5C 664.828,364.346 664.494,375.013 663.5,385.5C 663.5,375.167 663.5,364.833 663.5,354.5C 662.167,354.5 660.833,354.5 659.5,354.5 Z"/></g>
<g><path style="opacity:1" fill="#f6fff8" d="M 678.5,353.5 C 693.17,353.333 707.837,353.5 722.5,354C 733.695,358.584 736.861,366.417 732,377.5C 730.5,379 729,380.5 727.5,382C 735.987,389.252 736.654,397.252 729.5,406C 727.725,407.439 725.725,408.439 723.5,409C 708.504,409.5 693.504,409.667 678.5,409.5C 678.5,408.167 678.5,406.833 678.5,405.5C 692.837,405.667 707.171,405.5 721.5,405C 729.337,401.816 731.504,396.316 728,388.5C 726.786,386.951 725.286,385.785 723.5,385C 708.504,384.5 693.504,384.333 678.5,384.5C 678.5,382.833 678.5,381.167 678.5,379.5C 692.837,379.667 707.171,379.5 721.5,379C 726.917,377.691 729.583,374.191 729.5,368.5C 729.299,363.268 726.632,360.101 721.5,359C 707.171,358.5 692.837,358.333 678.5,358.5C 678.5,356.833 678.5,355.167 678.5,353.5 Z"/></g>
<g><path style="opacity:1" fill="#f6fff8" d="M 159.5,354.5 C 161.433,355.642 162.933,357.308 164,359.5C 173.167,375.833 182.333,392.167 191.5,408.5C 189.051,409.91 186.884,409.576 185,407.5C 177.339,392.841 169.173,378.508 160.5,364.5C 152.167,379.167 143.833,393.833 135.5,408.5C 133.579,409.641 131.579,409.808 129.5,409C 139.905,391.02 149.905,372.853 159.5,354.5 Z"/></g>
<g><path style="opacity:1" fill="#000" d="M 426.5,358.5 C 446.288,357.456 456.121,366.789 456,386.5C 449.972,402.598 438.805,408.098 422.5,403C 410.001,395.169 406.501,384.336 412,370.5C 415.541,364.78 420.374,360.78 426.5,358.5 Z"/></g>
<g><path style="opacity:1" fill="#eefff2" d="M 300.5,378.5 C 305.747,378.64 306.747,380.806 303.5,385C 298.382,384.824 297.382,382.658 300.5,378.5 Z"/></g>
<g><path style="opacity:1" fill="#fefffe" d="M 246.5,379.5 C 246.5,380.833 246.5,382.167 246.5,383.5C 234.322,383.172 222.322,383.505 210.5,384.5C 210.5,392.833 210.5,401.167 210.5,409.5C 209.167,409.5 207.833,409.5 206.5,409.5C 206.5,399.5 206.5,389.5 206.5,379.5C 219.833,379.5 233.167,379.5 246.5,379.5 Z"/></g>
<g><path style="opacity:1" fill="#bcffcf" d="M 246.5,379.5 C 247.451,380.919 247.784,382.585 247.5,384.5C 235.167,384.5 222.833,384.5 210.5,384.5C 222.322,383.505 234.322,383.172 246.5,383.5C 246.5,382.167 246.5,380.833 246.5,379.5 Z"/></g>
<g><path style="opacity:1" fill="#9dffbb" d="M 589.5,354.5 C 590.919,353.549 592.585,353.216 594.5,353.5C 594.83,372.341 594.497,391.007 593.5,409.5C 593.5,391.167 593.5,372.833 593.5,354.5C 592.167,354.5 590.833,354.5 589.5,354.5 Z"/></g>
<g><path style="opacity:1" fill="#f4fff7" d="M 194.5,452.5 C 198.122,451.924 201.122,452.924 203.5,455.5C 202.731,457.801 201.731,457.967 200.5,456C 198.833,455.333 197.167,455.333 195.5,456C 194.167,457.333 194.167,458.667 195.5,460C 199.132,460.747 201.966,462.58 204,465.5C 205.041,468.636 204.207,471.136 201.5,473C 198.5,473.667 195.5,473.667 192.5,473C 189.921,471.388 189.921,469.888 192.5,468.5C 194.867,470.395 197.534,470.895 200.5,470C 201.022,469.439 201.355,468.772 201.5,468C 198.481,465.396 195.314,462.896 192,460.5C 191.018,457.225 191.851,454.559 194.5,452.5 Z"/></g>
<g><path style="opacity:1" fill="#b0ffc6" d="M 211.5,453.5 C 216.975,452.511 222.642,452.178 228.5,452.5C 228.5,453.833 228.5,455.167 228.5,456.5C 226.167,456.5 223.833,456.5 221.5,456.5C 223.369,455.835 225.369,455.169 227.5,454.5C 222.208,453.505 216.875,453.172 211.5,453.5 Z"/></g>
<g><path style="opacity:1" fill="#adffc4" d="M 260.5,453.5 C 264.97,452.514 269.637,452.181 274.5,452.5C 274.5,453.833 274.5,455.167 274.5,456.5C 270.833,456.5 267.167,456.5 263.5,456.5C 266.689,455.834 270.023,455.167 273.5,454.5C 269.217,453.508 264.884,453.174 260.5,453.5 Z"/></g>
<g><path style="opacity:1" fill="#f2fff5" d="M 380.5,452.5 C 390.317,452.149 394.817,456.815 394,466.5C 391.136,472.689 386.303,474.856 379.5,473C 371.27,465.768 371.604,458.935 380.5,452.5 Z"/></g>
<g><path style="opacity:1" fill="#c1ffd3" d="M 516.5,453.5 C 520.97,452.514 525.637,452.181 530.5,452.5C 530.5,453.5 530.5,454.5 530.5,455.5C 530.167,455.5 529.833,455.5 529.5,455.5C 525.627,453.57 521.294,452.903 516.5,453.5 Z"/></g>
<g><path style="opacity:1" fill="#f0fff4" d="M 599.5,452.5 C 602.829,452.264 605.829,453.097 608.5,455C 607.953,455.925 607.287,456.758 606.5,457.5C 603.763,454.697 601.429,454.864 599.5,458C 599.759,459.261 600.426,460.261 601.5,461C 609.057,463.065 610.391,467.065 605.5,473C 602.833,473.667 600.167,473.667 597.5,473C 594.183,471.915 593.849,470.415 596.5,468.5C 598.867,470.395 601.534,470.895 604.5,470C 605.86,468.062 605.527,466.396 603.5,465C 594.756,462.686 593.422,458.519 599.5,452.5 Z"/></g>
<g><path style="opacity:1" fill="#f8fffa" d="M 211.5,453.5 C 216.875,453.172 222.208,453.505 227.5,454.5C 225.369,455.169 223.369,455.835 221.5,456.5C 221.5,462.167 221.5,467.833 221.5,473.5C 220.5,473.5 219.5,473.5 218.5,473.5C 218.5,467.5 218.5,461.5 218.5,455.5C 216.167,455.5 213.833,455.5 211.5,455.5C 211.5,454.833 211.5,454.167 211.5,453.5 Z"/></g>
<g><path style="opacity:1" fill="#f3fff6" d="M 241.5,465.5 C 241.44,464.957 241.107,464.624 240.5,464.5C 239.516,467.428 239.183,470.428 239.5,473.5C 238.5,473.5 237.5,473.5 236.5,473.5C 236.5,466.5 236.5,459.5 236.5,452.5C 239.85,452.335 243.183,452.502 246.5,453C 250.213,454.691 251.379,457.525 250,461.5C 248.823,463.176 247.323,464.509 245.5,465.5C 247.69,467.856 249.69,470.356 251.5,473C 250.167,473.667 248.833,473.667 247.5,473C 245.666,470.337 243.666,467.837 241.5,465.5 Z"/></g>
<g><path style="opacity:1" fill="#fdfffe" d="M 260.5,453.5 C 264.884,453.174 269.217,453.508 273.5,454.5C 270.023,455.167 266.689,455.834 263.5,456.5C 263.5,458.167 263.5,459.833 263.5,461.5C 266.833,461.5 270.167,461.5 273.5,461.5C 273.5,462.5 273.5,463.5 273.5,464.5C 270.167,464.5 266.833,464.5 263.5,464.5C 263.5,466.5 263.5,468.5 263.5,470.5C 267.167,470.5 270.833,470.5 274.5,470.5C 274.5,471.5 274.5,472.5 274.5,473.5C 269.833,473.5 265.167,473.5 260.5,473.5C 260.5,466.833 260.5,460.167 260.5,453.5 Z"/></g>
<g><path style="opacity:1" fill="#f2fff5" d="M 290.5,452.5 C 292.411,452.574 293.578,453.574 294,455.5C 296.466,461.424 298.632,467.424 300.5,473.5C 298.41,473.55 297.077,472.55 296.5,470.5C 293.232,469.513 289.898,469.18 286.5,469.5C 286.752,472.932 285.419,473.932 282.5,472.5C 285.182,465.808 287.849,459.141 290.5,452.5 Z"/></g>
<g><path style="opacity:1" fill="#f4fff7" d="M 327.5,453.5 C 329.459,459.75 330.126,466.416 329.5,473.5C 328.5,473.5 327.5,473.5 326.5,473.5C 326.666,469.486 326.499,465.486 326,461.5C 324.477,464.555 322.477,467.222 320,469.5C 317.646,467.638 315.813,465.305 314.5,462.5C 314.217,461.711 313.717,461.044 313,460.5C 312.501,464.821 312.334,469.154 312.5,473.5C 311.5,473.5 310.5,473.5 309.5,473.5C 309.5,466.5 309.5,459.5 309.5,452.5C 310.675,452.281 311.675,452.614 312.5,453.5C 314.75,457.668 317.25,461.668 320,465.5C 322.261,461.304 324.761,457.304 327.5,453.5 Z"/></g>
<g><path style="opacity:1" fill="#92ffb3" d="M 327.5,453.5 C 328.209,452.596 329.209,452.263 330.5,452.5C 330.825,459.687 330.491,466.687 329.5,473.5C 330.126,466.416 329.459,459.75 327.5,453.5 Z"/></g>
<g><path style="opacity:1" fill="#e6ffec" d="M 349.5,452.5 C 350.978,452.238 352.311,452.571 353.5,453.5C 354.934,456.047 356.6,458.381 358.5,460.5C 360.412,458.343 362.079,456.009 363.5,453.5C 364.833,452.167 366.167,452.167 367.5,453.5C 365.084,456.663 362.918,459.996 361,463.5C 360.502,466.817 360.335,470.15 360.5,473.5C 359.167,473.5 357.833,473.5 356.5,473.5C 356.665,470.15 356.498,466.817 356,463.5C 353.579,459.929 351.413,456.262 349.5,452.5 Z"/></g>
<g><path style="opacity:1" fill="#f9fffa" d="M 403.5,452.5 C 404.5,452.5 405.5,452.5 406.5,452.5C 406.334,457.511 406.501,462.511 407,467.5C 409.528,471.085 412.528,471.418 416,468.5C 416.499,463.177 416.666,457.844 416.5,452.5C 417.5,452.5 418.5,452.5 419.5,452.5C 419.666,458.176 419.499,463.843 419,469.5C 416.045,473.277 412.212,474.443 407.5,473C 405.951,471.786 404.785,470.286 404,468.5C 403.501,463.177 403.334,457.844 403.5,452.5 Z"/></g>
<g><path style="opacity:1" fill="#f3fff6" d="M 434.5,465.5 C 434.44,464.957 434.107,464.624 433.5,464.5C 432.516,467.428 432.183,470.428 432.5,473.5C 431.5,473.5 430.5,473.5 429.5,473.5C 429.5,466.5 429.5,459.5 429.5,452.5C 432.85,452.335 436.183,452.502 439.5,453C 443.213,454.691 444.379,457.525 443,461.5C 441.823,463.176 440.323,464.509 438.5,465.5C 440.69,467.856 442.69,470.356 444.5,473C 443.167,473.667 441.833,473.667 440.5,473C 438.666,470.337 436.666,467.837 434.5,465.5 Z"/></g>
<g><path style="opacity:1" fill="#f7fff9" d="M 465.5,452.5 C 471.933,451.478 477.433,453.145 482,457.5C 485.081,464.49 483.248,469.657 476.5,473C 472.848,473.499 469.182,473.665 465.5,473.5C 465.5,466.5 465.5,459.5 465.5,452.5 Z"/></g>
<g><path style="opacity:1" fill="#c1ffd4" d="M 502.5,453.5 C 499.5,453.5 496.5,453.5 493.5,453.5C 493.5,460.167 493.5,466.833 493.5,473.5C 492.509,466.687 492.175,459.687 492.5,452.5C 496.042,452.187 499.375,452.521 502.5,453.5 Z"/></g>
<g><path style="opacity:1" fill="#f4fff7" d="M 502.5,453.5 C 505.525,454.033 506.858,455.867 506.5,459C 506.666,462.439 504.999,464.439 501.5,465C 503.5,467.667 505.5,470.333 507.5,473C 506.167,473.667 504.833,473.667 503.5,473C 501.333,470.167 499.167,467.333 497,464.5C 496.502,467.482 496.335,470.482 496.5,473.5C 495.5,473.5 494.5,473.5 493.5,473.5C 493.5,466.833 493.5,460.167 493.5,453.5C 496.5,453.5 499.5,453.5 502.5,453.5 Z"/></g>
<g><path style="opacity:1" fill="#fefffe" d="M 516.5,453.5 C 521.294,452.903 525.627,453.57 529.5,455.5C 526.167,455.5 522.833,455.5 519.5,455.5C 519.205,457.735 519.539,459.735 520.5,461.5C 523.5,461.5 526.5,461.5 529.5,461.5C 529.5,462.5 529.5,463.5 529.5,464.5C 526.167,464.5 522.833,464.5 519.5,464.5C 519.5,466.5 519.5,468.5 519.5,470.5C 523.167,470.5 526.833,470.5 530.5,470.5C 530.5,471.5 530.5,472.5 530.5,473.5C 525.833,473.5 521.167,473.5 516.5,473.5C 516.5,466.833 516.5,460.167 516.5,453.5 Z"/></g>
<g><path style="opacity:1" fill="#f2fff5" d="M 546.5,452.5 C 547.5,452.5 548.5,452.5 549.5,452.5C 551.671,459.512 554.338,466.345 557.5,473C 555.051,473.775 553.384,472.942 552.5,470.5C 549.232,469.513 545.898,469.18 542.5,469.5C 542.752,472.932 541.419,473.932 538.5,472.5C 541.369,465.889 544.036,459.222 546.5,452.5 Z"/></g>
<g><path style="opacity:1" fill="#ecfff1" d="M 583.5,453.5 C 585.459,459.75 586.126,466.416 585.5,473.5C 584.5,473.5 583.5,473.5 582.5,473.5C 582.666,469.486 582.499,465.486 582,461.5C 580.477,464.555 578.477,467.222 576,469.5C 573.542,467.286 571.542,464.619 570,461.5C 569.501,465.486 569.334,469.486 569.5,473.5C 568.167,473.5 566.833,473.5 565.5,473.5C 565.5,466.5 565.5,459.5 565.5,452.5C 566.675,452.281 567.675,452.614 568.5,453.5C 570.75,457.668 573.25,461.668 576,465.5C 578.725,461.615 581.225,457.615 583.5,453.5 Z"/></g>
<g><path style="opacity:1" fill="#b2ffc9" d="M 583.5,453.5 C 584.209,452.596 585.209,452.263 586.5,452.5C 586.825,459.687 586.491,466.687 585.5,473.5C 586.126,466.416 585.459,459.75 583.5,453.5 Z"/></g>
<g><path style="opacity:1" fill="#7dffa3" d="M 529.5,455.5 C 529.833,455.5 530.167,455.5 530.5,455.5C 527.375,456.479 524.042,456.813 520.5,456.5C 520.5,458.167 520.5,459.833 520.5,461.5C 519.539,459.735 519.205,457.735 519.5,455.5C 522.833,455.5 526.167,455.5 529.5,455.5 Z"/></g>
<g><path style="opacity:1" fill="#8fffb1" d="M 211.5,455.5 C 213.833,455.5 216.167,455.5 218.5,455.5C 218.5,461.5 218.5,467.5 218.5,473.5C 217.511,468.025 217.178,462.358 217.5,456.5C 215.265,456.795 213.265,456.461 211.5,455.5 Z"/></g>
<g><path style="opacity:1" fill="#17ff54" d="M 240.5,455.5 C 245.006,454.527 247.172,456.194 247,460.5C 246.617,461.056 246.117,461.389 245.5,461.5C 243.833,461.5 242.167,461.5 240.5,461.5C 240.5,459.5 240.5,457.5 240.5,455.5 Z"/></g>
<g><path style="opacity:1" fill="#000" d="M 381.5,455.5 C 388.531,455.255 391.698,458.588 391,465.5C 388.928,470.143 385.428,471.643 380.5,470C 375.003,464.683 375.336,459.85 381.5,455.5 Z"/></g>
<g><path style="opacity:1" fill="#17ff54" d="M 433.5,455.5 C 438.006,454.527 440.172,456.194 440,460.5C 439.617,461.056 439.117,461.389 438.5,461.5C 436.833,461.5 435.167,461.5 433.5,461.5C 433.5,459.5 433.5,457.5 433.5,455.5 Z"/></g>
<g><path style="opacity:1" fill="#000" d="M 468.5,455.5 C 472.131,455.16 475.464,455.994 478.5,458C 481.827,467.191 478.493,471.358 468.5,470.5C 468.5,465.5 468.5,460.5 468.5,455.5 Z"/></g>
<g><path style="opacity:1" fill="#1cff55" d="M 496.5,455.5 C 499.641,454.908 501.974,455.908 503.5,458.5C 503.547,460.038 502.88,461.038 501.5,461.5C 499.833,461.5 498.167,461.5 496.5,461.5C 496.5,459.5 496.5,457.5 496.5,455.5 Z"/></g>
<g><path style="opacity:1" fill="#2cff5d" d="M 290.5,459.5 C 291.376,459.369 292.043,459.702 292.5,460.5C 295.892,465.724 294.559,467.39 288.5,465.5C 289.372,463.55 290.039,461.55 290.5,459.5 Z"/></g>
<g><path style="opacity:1" fill="#32ff5f" d="M 547.5,458.5 C 549.02,460.89 550.02,463.557 550.5,466.5C 548.396,466.799 546.396,466.466 544.5,465.5C 545.702,463.22 546.702,460.886 547.5,458.5 Z"/></g>
<g><path style="opacity:1" fill="#8affac" d="M 240.5,455.5 C 240.5,457.5 240.5,459.5 240.5,461.5C 242.167,461.5 243.833,461.5 245.5,461.5C 243.735,462.461 241.735,462.795 239.5,462.5C 239.198,459.941 239.532,457.607 240.5,455.5 Z"/></g>
<g><path style="opacity:1" fill="#7affa2" d="M 314.5,462.5 C 313.833,466.167 313.167,469.833 312.5,473.5C 312.334,469.154 312.501,464.821 313,460.5C 313.717,461.044 314.217,461.711 314.5,462.5 Z"/></g>
<g><path style="opacity:1" fill="#8affac" d="M 433.5,455.5 C 433.5,457.5 433.5,459.5 433.5,461.5C 435.167,461.5 436.833,461.5 438.5,461.5C 436.735,462.461 434.735,462.795 432.5,462.5C 432.198,459.941 432.532,457.607 433.5,455.5 Z"/></g>
<g><path style="opacity:1" fill="#96ffb4" d="M 496.5,455.5 C 496.5,457.5 496.5,459.5 496.5,461.5C 498.167,461.5 499.833,461.5 501.5,461.5C 499.735,462.461 497.735,462.795 495.5,462.5C 495.198,459.941 495.532,457.607 496.5,455.5 Z"/></g>
<g><path style="opacity:1" fill="#86ffaa" d="M 241.5,465.5 C 240.833,468.167 240.167,470.833 239.5,473.5C 239.183,470.428 239.516,467.428 240.5,464.5C 241.107,464.624 241.44,464.957 241.5,465.5 Z"/></g>
<g><path style="opacity:1" fill="#86ffaa" d="M 434.5,465.5 C 433.833,468.167 433.167,470.833 432.5,473.5C 432.183,470.428 432.516,467.428 433.5,464.5C 434.107,464.624 434.44,464.957 434.5,465.5 Z"/></g>
</svg>
