<?xml version="1.0" encoding="UTF-8"?>
<!DOCTYPE svg PUBLIC "-//W3C//DTD SVG 1.1//EN" "http://www.w3.org/Graphics/SVG/1.1/DTD/svg11.dtd">
<svg xmlns="http://www.w3.org/2000/svg" version="1.1" width="600px" height="480px" style="shape-rendering:geometricPrecision; text-rendering:geometricPrecision; image-rendering:optimizeQuality; fill-rule:evenodd; clip-rule:evenodd" xmlns:xlink="http://www.w3.org/1999/xlink">
<g><path style="opacity:0.667" fill="#4d4d4c" d="M 363.5,64.5 C 363.672,65.4916 363.338,66.1583 362.5,66.5C 360.272,65.6782 359.605,64.3448 360.5,62.5C 361.739,62.9424 362.739,63.6091 363.5,64.5 Z"/></g>
<g><path style="opacity:0.978" fill="#fdfdfd" d="M 363.5,64.5 C 371.167,69.3674 376,76.3674 378,85.5C 382.969,110.579 376.969,132.579 360,151.5C 352.905,159.1 345.405,166.1 337.5,172.5C 332.766,174.374 328.432,177.041 324.5,180.5C 324.833,180.833 325.167,181.167 325.5,181.5C 358.714,198.691 391.881,216.024 425,233.5C 430.238,241.355 429.405,248.522 422.5,255C 416.644,257.76 410.977,260.76 405.5,264C 407.676,267.723 409.343,271.556 410.5,275.5C 410.825,282.62 410.159,289.62 408.5,296.5C 406.969,297.925 407.302,298.591 409.5,298.5C 408.328,305.588 405.328,310.921 400.5,314.5C 400.565,314.062 400.399,313.728 400,313.5C 399.293,315.081 398.46,316.581 397.5,318C 397.728,318.399 398.062,318.565 398.5,318.5C 381.578,345.588 358.578,365.755 329.5,379C 296.28,392.225 266.447,387.059 240,363.5C 227.199,348.578 219.366,331.578 216.5,312.5C 213.033,276.233 222.7,243.9 245.5,215.5C 250.164,211.669 254.33,207.336 258,202.5C 258.333,190.5 258.667,178.5 259,166.5C 262.369,157.899 268.535,154.732 277.5,157C 286.05,161.442 294.717,165.609 303.5,169.5C 307.722,167.945 311.722,165.945 315.5,163.5C 316.298,163.043 316.631,162.376 316.5,161.5C 331.794,154.056 345.294,144.056 357,131.5C 370.296,114.686 373.963,96.0198 368,75.5C 366.338,72.3507 364.505,69.3507 362.5,66.5C 363.338,66.1583 363.672,65.4916 363.5,64.5 Z M 245.5,275.5 C 246.138,284.895 245.471,293.895 243.5,302.5C 242.61,293.302 243.277,284.302 245.5,275.5 Z M 396.5,284.5 C 390.999,300.85 381.665,314.683 368.5,326C 355.514,338.164 340.847,347.83 324.5,355C 304.382,363.504 285.048,362.171 266.5,351C 261.51,346.856 257.51,342.023 254.5,336.5C 261.194,341.761 268.861,344.094 277.5,343.5C 310.976,351.398 338.143,341.731 359,314.5C 361.372,311.09 363.205,307.423 364.5,303.5C 365.391,301.709 366.391,299.876 367.5,298C 376.99,293.422 386.324,288.589 395.5,283.5C 396.107,283.624 396.44,283.957 396.5,284.5 Z M 360.5,301.5 C 360.5,301.833 360.5,302.167 360.5,302.5C 345.708,321.731 326.041,331.731 301.5,332.5C 320.974,321.928 340.641,311.595 360.5,301.5 Z"/></g>
<g><path style="opacity:0.813" fill="#fcfcfc" d="M 377.5,182.5 C 375.088,182.694 374.088,184.027 374.5,186.5C 374.5,187.5 374.5,188.5 374.5,189.5C 374.649,190.552 374.483,191.552 374,192.5C 366.785,188.809 359.619,184.975 352.5,181C 353.056,180.617 353.389,180.117 353.5,179.5C 354.391,178.89 355.391,178.557 356.5,178.5C 358.781,178.923 360.448,178.256 361.5,176.5C 378.249,165.906 390.082,151.239 397,132.5C 398.777,125.953 399.777,119.286 400,112.5C 405.021,137.116 398.854,158.616 381.5,177C 382.112,179.877 380.779,181.711 377.5,182.5 Z"/></g>
<g><path style="opacity:0.008" fill="#5d5d5d" d="M 361.5,176.5 C 360.448,178.256 358.781,178.923 356.5,178.5C 358.028,177.691 359.694,177.024 361.5,176.5 Z"/></g>
<g><path style="opacity:0.991" fill="#262641" d="M 316.5,161.5 C 316.631,162.376 316.298,163.043 315.5,163.5C 311.722,165.945 307.722,167.945 303.5,169.5C 294.717,165.609 286.05,161.442 277.5,157C 268.535,154.732 262.369,157.899 259,166.5C 258.667,178.5 258.333,190.5 258,202.5C 254.33,207.336 250.164,211.669 245.5,215.5C 245.664,212.813 245.497,210.146 245,207.5C 217.165,234.671 204.498,267.671 207,306.5C 207.977,305.226 208.811,305.226 209.5,306.5C 205.465,311.044 205.798,315.378 210.5,319.5C 209.609,320.261 208.942,321.261 208.5,322.5C 221.986,380.587 258.319,405.42 317.5,397C 329.321,395.336 340.821,392.503 352,388.5C 352.167,388.833 352.333,389.167 352.5,389.5C 318.763,411.296 282.763,416.129 244.5,404C 219.514,392.013 202.681,372.846 194,346.5C 174.715,288.32 186.548,237.653 229.5,194.5C 233.202,192.976 236.536,190.81 239.5,188C 240.823,187.184 241.489,186.017 241.5,184.5C 242.657,182.862 243.824,181.196 245,179.5C 243.768,167.6 247.268,157.433 255.5,149C 262.741,143.95 270.741,142.283 279.5,144C 285.56,145.864 291.226,148.53 296.5,152C 297.5,152.667 298.5,152.667 299.5,152C 312.762,143.405 323.262,132.238 331,118.5C 332.27,114.858 333.436,111.192 334.5,107.5C 335.933,113.976 335.433,120.309 333,126.5C 327.251,138.413 319.751,149.08 310.5,158.5C 312.243,160.038 314.243,161.038 316.5,161.5 Z"/></g>
<g><path style="opacity:0.021" fill="#020202" d="M 377.5,182.5 C 376.488,183.872 375.488,185.205 374.5,186.5C 374.088,184.027 375.088,182.694 377.5,182.5 Z"/></g>
<g><path style="opacity:0.014" fill="#f3f3f5" d="M 241.5,184.5 C 241.489,186.017 240.823,187.184 239.5,188C 236.536,190.81 233.202,192.976 229.5,194.5C 233.183,190.82 237.183,187.486 241.5,184.5 Z"/></g>
<g><path style="opacity:0.995" fill="#272741" d="M 337.5,172.5 C 342.323,175.909 347.656,178.243 353.5,179.5C 353.389,180.117 353.056,180.617 352.5,181C 359.619,184.975 366.785,188.809 374,192.5C 374.483,191.552 374.649,190.552 374.5,189.5C 375.249,190.531 375.915,191.698 376.5,193C 377.577,193.47 378.577,193.303 379.5,192.5C 379.821,194.048 380.821,194.715 382.5,194.5C 384.346,196.78 386.679,198.613 389.5,200C 403.323,206.745 416.99,213.745 430.5,221C 442.325,231.805 444.492,244.305 437,258.5C 435.167,261.667 432.667,264.167 429.5,266C 423.114,269.193 416.78,272.36 410.5,275.5C 409.343,271.556 407.676,267.723 405.5,264C 410.977,260.76 416.644,257.76 422.5,255C 429.405,248.522 430.238,241.355 425,233.5C 391.881,216.024 358.714,198.691 325.5,181.5C 325.167,181.167 324.833,180.833 324.5,180.5C 328.432,177.041 332.766,174.374 337.5,172.5 Z"/></g>
<g><path style="opacity:0.008" fill="#f8f8f8" d="M 379.5,192.5 C 380.71,192.932 381.71,193.599 382.5,194.5C 380.821,194.715 379.821,194.048 379.5,192.5 Z"/></g>
<g><path style="opacity:0.996" fill="#bbbbc4" d="M 279.5,227.5 C 278.167,253.833 278.167,280.167 279.5,306.5C 279.44,307.043 279.107,307.376 278.5,307.5C 277.333,279.173 277.167,250.839 278,222.5C 278.608,224.154 279.108,225.821 279.5,227.5 Z"/></g>
<g><path style="opacity:1" fill="#282843" d="M 279.5,227.5 C 284.545,259.524 303.211,274.024 335.5,271C 343.309,269.571 350.976,267.904 358.5,266C 332.14,279.513 305.807,293.013 279.5,306.5C 278.167,280.167 278.167,253.833 279.5,227.5 Z"/></g>
<g><path style="opacity:0.997" fill="#d4d3db" d="M 257.5,241.5 C 257.56,240.957 257.893,240.624 258.5,240.5C 259.5,266.491 259.833,292.491 259.5,318.5C 258.833,292.833 258.167,267.167 257.5,241.5 Z"/></g>
<g><path style="opacity:0.995" fill="#282742" d="M 257.5,241.5 C 258.167,267.167 258.833,292.833 259.5,318.5C 261.339,327.766 267.005,331.599 276.5,330C 316.568,309.883 356.402,289.383 396,268.5C 397.415,271.793 398.248,275.293 398.5,279C 398.607,281.221 397.94,283.054 396.5,284.5C 396.44,283.957 396.107,283.624 395.5,283.5C 386.324,288.589 376.99,293.422 367.5,298C 366.391,299.876 365.391,301.709 364.5,303.5C 364.5,302.833 364.5,302.167 364.5,301.5C 365.087,300.233 365.087,299.233 364.5,298.5C 363.148,299.524 361.815,300.524 360.5,301.5C 340.641,311.595 320.974,321.928 301.5,332.5C 293.162,335.673 285.162,339.339 277.5,343.5C 268.861,344.094 261.194,341.761 254.5,336.5C 254.5,335.833 254.167,335.5 253.5,335.5C 253.5,334.833 253.167,334.5 252.5,334.5C 250.153,331.139 248.319,327.472 247,323.5C 245.987,318.637 244.82,313.804 243.5,309C 244.794,308.894 245.461,307.894 245.5,306C 245.138,304.566 244.472,303.399 243.5,302.5C 245.471,293.895 246.138,284.895 245.5,275.5C 245.754,271.061 246.588,266.728 248,262.5C 250.889,255.315 254.056,248.315 257.5,241.5 Z"/></g>
<g><path style="opacity:0.024" fill="#2d2d2d" d="M 408.5,296.5 C 409.338,296.842 409.672,297.508 409.5,298.5C 407.302,298.591 406.969,297.925 408.5,296.5 Z"/></g>
<g><path style="opacity:0.949" fill="#9f9ea4" d="M 364.5,301.5 C 363.167,301.833 361.833,302.167 360.5,302.5C 360.5,302.167 360.5,301.833 360.5,301.5C 361.815,300.524 363.148,299.524 364.5,298.5C 365.087,299.233 365.087,300.233 364.5,301.5 Z"/></g>
<g><path style="opacity:0.884" fill="#fefefe" d="M 364.5,301.5 C 364.5,302.167 364.5,302.833 364.5,303.5C 363.205,307.423 361.372,311.09 359,314.5C 338.143,341.731 310.976,351.398 277.5,343.5C 285.162,339.339 293.162,335.673 301.5,332.5C 326.041,331.731 345.708,321.731 360.5,302.5C 361.833,302.167 363.167,301.833 364.5,301.5 Z"/></g>
<g><path style="opacity:0.015" fill="#e9e9ea" d="M 209.5,306.5 C 209.372,310.881 209.705,315.215 210.5,319.5C 205.798,315.378 205.465,311.044 209.5,306.5 Z"/></g>
<g><path style="opacity:0.255" fill="#1a1a1b" d="M 400.5,314.5 C 400.34,316.153 399.674,317.486 398.5,318.5C 398.062,318.565 397.728,318.399 397.5,318C 398.46,316.581 399.293,315.081 400,313.5C 400.399,313.728 400.565,314.062 400.5,314.5 Z"/></g>
</svg>
