<svg xmlns="http://www.w3.org/2000/svg" version="1.1" width="500px" height="78px" style="shape-rendering:geometricPrecision; text-rendering:geometricPrecision; image-rendering:optimizeQuality; fill-rule:evenodd; clip-rule:evenodd" xmlns:xlink="http://www.w3.org/1999/xlink">
<g><path style="opacity:1" fill="#fff" d="M 65.5,37.5 C 65.5,37.8333 65.5,38.1667 65.5,38.5C 60.456,38.1725 55.456,38.5059 50.5,39.5C 50.1373,40.1835 49.8039,40.8501 49.5,41.5C 44.1997,41.384 40.6997,38.7173 39,33.5C 38.8222,26.6561 42.1556,22.3227 49,20.5C 58.088,20.2135 67.2546,20.5468 76.5,21.5C 76.5,22.8333 76.5,24.1667 76.5,25.5C 67.4938,25.3336 58.4938,25.5002 49.5,26C 43.4085,27.9345 42.4085,31.2678 46.5,36C 52.7145,37.4155 59.0478,37.9155 65.5,37.5 Z"/></g>
<g><path style="opacity:1" fill="#fff" d="M 163.5,25.5 C 163.737,24.209 163.404,23.209 162.5,22.5C 151.186,23.7871 139.853,23.7871 128.5,22.5C 128.5,23.5 128.5,24.5 128.5,25.5C 127.088,23.7697 127.422,22.2697 129.5,21C 134.167,20.8333 138.833,20.6667 143.5,20.5C 150.101,20.9715 156.601,20.9715 163,20.5C 164.677,22.1484 164.844,23.8151 163.5,25.5 Z"/></g>
<g><path style="opacity:1" fill="#fff" d="M 202.5,22.5 C 196.018,23.0452 189.685,23.7119 183.5,24.5C 182.833,24.5 182.5,24.8333 182.5,25.5C 180.692,25.5086 179.025,25.0086 177.5,24C 178.056,23.6174 178.389,23.1174 178.5,22.5C 182.896,20.9669 187.563,20.3002 192.5,20.5C 196.239,20.5136 199.572,21.1803 202.5,22.5 Z"/></g>
<g><path style="opacity:1" fill="#fff" d="M 240.5,22.5 C 231.338,22.98 222.338,23.6467 213.5,24.5C 212.542,24.0472 211.708,23.3805 211,22.5C 210.517,23.448 210.351,24.448 210.5,25.5C 208.312,24.4643 208.312,22.9643 210.5,21C 219.235,20.7083 227.902,20.5417 236.5,20.5C 238.026,20.9943 239.359,21.661 240.5,22.5 Z"/></g>
<g><path style="opacity:1" fill="#fff" d="M 458.5,27.5 C 458.279,30.0972 457.779,30.0972 457,27.5C 456.667,29.8333 456.333,32.1667 456,34.5C 455.536,33.9056 455.369,33.2389 455.5,32.5C 455.287,28.6795 453.287,26.5128 449.5,26C 440.506,25.5002 431.506,25.3336 422.5,25.5C 422.227,23.0418 423.227,21.3751 425.5,20.5C 434.452,21.3064 443.452,21.8064 452.5,22C 455.647,22.6488 457.647,24.4821 458.5,27.5 Z"/></g>
<g><path style="opacity:1" fill="#fff" d="M 162.5,22.5 C 162.389,23.1174 162.056,23.6174 161.5,24C 150.923,24.8191 140.423,24.6524 130,23.5C 129.536,24.0944 129.369,24.7611 129.5,25.5C 129.167,25.5 128.833,25.5 128.5,25.5C 128.5,24.5 128.5,23.5 128.5,22.5C 139.853,23.7871 151.186,23.7871 162.5,22.5 Z"/></g>
<g><path style="opacity:1" fill="#fff" d="M 202.5,22.5 C 202.737,23.791 202.404,24.791 201.5,25.5C 201.631,24.7611 201.464,24.0944 201,23.5C 195.259,24.4749 189.425,24.8082 183.5,24.5C 189.685,23.7119 196.018,23.0452 202.5,22.5 Z"/></g>
<g><path style="opacity:1" fill="#fff" d="M 240.5,22.5 C 239.737,23.2679 238.737,23.7679 237.5,24C 239.932,25.0875 239.598,25.5875 236.5,25.5C 229.018,24.508 221.352,24.1746 213.5,24.5C 222.338,23.6467 231.338,22.98 240.5,22.5 Z"/></g>
<g><path style="opacity:1" fill="#ffffff" d="M 278.5,23.5 C 279.567,25.8795 278.567,26.8795 275.5,26.5C 260.996,24.8404 255.162,31.1737 258,45.5C 262.083,52.1482 267.916,54.4815 275.5,52.5C 276.239,52.369 276.906,52.5357 277.5,53C 276.167,53.6667 274.833,54.3333 273.5,55C 274.167,55.3333 274.833,55.6667 275.5,56C 274.584,56.2784 273.918,56.7784 273.5,57.5C 263.725,58.952 256.892,54.952 253,45.5C 249.999,30.9985 255.833,22.6652 270.5,20.5C 273.345,21.1137 276.012,22.1137 278.5,23.5 Z"/></g>
<g><path style="opacity:1" fill="#fff" d="M 162.5,22.5 C 163.404,23.209 163.737,24.209 163.5,25.5C 152.167,25.5 140.833,25.5 129.5,25.5C 129.369,24.7611 129.536,24.0944 130,23.5C 140.423,24.6524 150.923,24.8191 161.5,24C 162.056,23.6174 162.389,23.1174 162.5,22.5 Z"/></g>
<g><path style="opacity:1" fill="#fff" d="M 201.5,25.5 C 195.167,25.5 188.833,25.5 182.5,25.5C 182.5,24.8333 182.833,24.5 183.5,24.5C 189.425,24.8082 195.259,24.4749 201,23.5C 201.464,24.0944 201.631,24.7611 201.5,25.5 Z"/></g>
<g><path style="opacity:1" fill="#fff" d="M 213.5,24.5 C 221.352,24.1746 229.018,24.508 236.5,25.5C 227.833,25.5 219.167,25.5 210.5,25.5C 210.351,24.448 210.517,23.448 211,22.5C 211.708,23.3805 212.542,24.0472 213.5,24.5 Z"/></g>
<g><path style="opacity:1" fill="#fff" d="M 339.5,37.5 C 339.157,39.4832 339.824,40.8166 341.5,41.5C 341.158,42.3382 340.492,42.6716 339.5,42.5C 338.5,42.5 337.5,42.5 336.5,42.5C 336.337,40.1432 336.503,37.8098 337,35.5C 337.906,38.1208 338.406,37.9541 338.5,35C 337.555,32.7494 336.889,30.416 336.5,28C 336.629,26.0194 337.296,24.3528 338.5,23C 337.552,22.5172 336.552,22.3505 335.5,22.5C 335.5,34.1667 335.5,45.8333 335.5,57.5C 334.34,45.6738 334.174,33.6738 335,21.5C 336.333,20.1667 337.667,20.1667 339,21.5C 339.499,26.8229 339.666,32.1563 339.5,37.5 Z"/></g>
<g><path style="opacity:1" fill="#fff" d="M 371.5,40.5 C 369.883,41.038 368.216,41.3713 366.5,41.5C 365.737,40.7321 364.737,40.2321 363.5,40C 364.938,39.7811 366.271,39.2811 367.5,38.5C 367.376,37.8933 367.043,37.56 366.5,37.5C 366.172,32.1254 366.505,26.7921 367.5,21.5C 370.785,20.4284 372.451,21.7617 372.5,25.5C 371.669,30.4662 371.336,35.4662 371.5,40.5 Z"/></g>
<g><path style="opacity:1" fill="#fff" d="M 314.5,37.5 C 314.631,36.7611 314.464,36.0944 314,35.5C 312.927,35.2014 311.76,35.2014 310.5,35.5C 313.931,30.8931 317.597,26.3931 321.5,22C 328.699,19.5176 329.866,21.0176 325,26.5C 321.324,30.0093 317.824,33.676 314.5,37.5 Z"/></g>
<g><path style="opacity:1" fill="#fff" d="M 310.5,35.5 C 311.76,35.2014 312.927,35.2014 314,35.5C 314.464,36.0944 314.631,36.7611 314.5,37.5C 313.697,38.4232 313.53,39.4232 314,40.5C 316.782,42.7705 318.949,45.4372 320.5,48.5C 320.631,49.2389 320.464,49.9056 320,50.5C 319,49.1667 318,47.8333 317,46.5C 317.109,47.7688 316.942,48.7688 316.5,49.5C 314.186,47.5227 311.853,45.5227 309.5,43.5C 307.451,44.8818 305.785,46.5484 304.5,48.5C 303.883,48.6107 303.383,48.944 303,49.5C 301.959,48.5289 301.126,47.5289 300.5,46.5C 302.403,44.3721 304.069,42.0387 305.5,39.5C 301.709,33.5949 297.209,28.2616 292,23.5C 291.333,22.8333 291.333,22.1667 292,21.5C 293.398,20.9491 294.732,20.6158 296,20.5C 301.113,25.4426 305.946,30.4426 310.5,35.5 Z"/></g>
<g><path style="opacity:1" fill="#fff" d="M 178.5,22.5 C 178.389,23.1174 178.056,23.6174 177.5,24C 179.025,25.0086 180.692,25.5086 182.5,25.5C 169.809,30.9074 167.476,39.2407 175.5,50.5C 174.883,50.3893 174.383,50.056 174,49.5C 173.36,51.265 173.527,52.9317 174.5,54.5C 168.738,51.332 165.738,46.332 165.5,39.5C 165.763,30.6119 170.096,24.9452 178.5,22.5 Z"/></g>
<g><path style="opacity:1" fill="#fff" d="M 108.5,35.5 C 107.637,34.537 106.97,34.537 106.5,35.5C 108.455,37.6917 108.788,40.025 107.5,42.5C 104.775,38.7324 102.275,34.7324 100,30.5C 97.807,34.2299 95.6404,37.8965 93.5,41.5C 92.9033,41.2648 92.5699,40.7648 92.5,40C 93.6153,37.3844 94.9486,34.8844 96.5,32.5C 95.8728,31.5832 95.5394,30.5832 95.5,29.5C 96.3563,26.3137 98.023,23.6471 100.5,21.5C 103.681,25.8605 106.348,30.5272 108.5,35.5 Z"/></g>
<g><path style="opacity:1" fill="#fff" d="M 95.5,29.5 C 95.5394,30.5832 95.8728,31.5832 96.5,32.5C 94.9486,34.8844 93.6153,37.3844 92.5,40C 92.5699,40.7648 92.9033,41.2648 93.5,41.5C 91.8808,45.1063 89.8808,48.4396 87.5,51.5C 86.9704,49.2845 87.637,47.1178 89.5,45C 88.8333,44.6667 88.1667,44.3333 87.5,44C 88.2524,43.3292 88.5858,42.4959 88.5,41.5C 90.332,37.1638 92.6654,33.1638 95.5,29.5 Z"/></g>
<g><path style="opacity:1" fill="#fff" d="M 129.5,37.5 C 128.54,44.0779 128.207,50.7446 128.5,57.5C 127.835,54.3509 127.502,51.0175 127.5,47.5C 127.514,43.7614 128.18,40.428 129.5,37.5 Z"/></g>
<g><path style="opacity:1" fill="#fff" d="M 129.5,37.5 C 138.336,37.0314 147.003,37.5314 155.5,39C 155.043,39.414 154.709,39.914 154.5,40.5C 147.197,41.4973 139.863,41.8306 132.5,41.5C 131.512,46.6405 131.179,51.9738 131.5,57.5C 130.5,57.5 129.5,57.5 128.5,57.5C 128.207,50.7446 128.54,44.0779 129.5,37.5 Z"/></g>
<g><path style="opacity:1" fill="#fff" d="M 240.5,22.5 C 246.064,25.0641 247.898,29.3974 246,35.5C 244.954,37.0905 243.787,38.5905 242.5,40C 247.493,44.4685 247.827,49.3019 243.5,54.5C 243.53,53.5028 243.03,52.8361 242,52.5C 240.862,52.9891 239.695,53.3225 238.5,53.5C 242.748,49.0189 242.415,45.0189 237.5,41.5C 237.938,41.5654 238.272,41.3988 238.5,41C 237.224,39.788 235.724,38.9547 234,38.5C 231.263,39.5401 228.429,40.2067 225.5,40.5C 220.863,39.5058 216.197,38.8391 211.5,38.5C 210.596,39.209 210.263,40.209 210.5,41.5C 209.566,40.4324 209.232,39.099 209.5,37.5C 218.839,37.6665 228.173,37.4998 237.5,37C 240.991,35.1792 242.157,32.3458 241,28.5C 239.591,27.2189 238.091,26.2189 236.5,25.5C 239.598,25.5875 239.932,25.0875 237.5,24C 238.737,23.7679 239.737,23.2679 240.5,22.5 Z"/></g>
<g><path style="opacity:1" fill="#fff" d="M 458.5,27.5 C 459.833,30.1667 459.833,32.8333 458.5,35.5C 458.631,34.7611 458.464,34.0944 458,33.5C 457.228,34.8491 456.061,35.6824 454.5,36C 454.649,38.4824 454.649,40.9824 454.5,43.5C 452.847,43.3404 451.514,42.6737 450.5,41.5C 450.586,40.5041 450.252,39.6708 449.5,39C 447.618,38.8019 445.952,38.3019 444.5,37.5C 449.377,38.2247 453.044,36.5581 455.5,32.5C 455.369,33.2389 455.536,33.9056 456,34.5C 456.333,32.1667 456.667,29.8333 457,27.5C 457.779,30.0972 458.279,30.0972 458.5,27.5 Z"/></g>
<g><path style="opacity:1" fill="#fff" d="M 65.5,38.5 C 65.5,38.1667 65.5,37.8333 65.5,37.5C 71.6503,37.9791 75.317,41.3125 76.5,47.5C 76.0057,49.0255 75.339,50.3588 74.5,51.5C 73.4514,51.5979 72.2847,51.5979 71,51.5C 70.2917,52.3805 69.4584,53.0472 68.5,53.5C 69.6086,51.4456 70.6086,49.2789 71.5,47C 70.3207,44.6571 68.6541,42.8238 66.5,41.5C 66.9382,41.5654 67.2716,41.3988 67.5,41C 64.8333,40.3333 64.8333,39.6667 67.5,39C 66.9056,38.5357 66.2389,38.369 65.5,38.5 Z"/></g>
<g><path style="opacity:1" fill="#fff" d="M 339.5,37.5 C 348.5,37.5 357.5,37.5 366.5,37.5C 367.043,37.56 367.376,37.8933 367.5,38.5C 366.271,39.2811 364.938,39.7811 363.5,40C 364.737,40.2321 365.737,40.7321 366.5,41.5C 358.263,41.7699 349.929,41.7699 341.5,41.5C 339.824,40.8166 339.157,39.4832 339.5,37.5 Z"/></g>
<g><path style="opacity:1" fill="#fff" d="M 186.5,36.5 C 191.159,36.0146 192.492,37.848 190.5,42C 185.728,42.8104 184.395,40.9771 186.5,36.5 Z"/></g>
<g><path style="opacity:1" fill="#fff" d="M 211.5,38.5 C 216.197,38.8391 220.863,39.5058 225.5,40.5C 228.429,40.2067 231.263,39.5401 234,38.5C 235.724,38.9547 237.224,39.788 238.5,41C 238.272,41.3988 237.938,41.5654 237.5,41.5C 230.5,41.5 223.5,41.5 216.5,41.5C 214.469,41.0276 212.802,40.0276 211.5,38.5 Z"/></g>
<g><path style="opacity:1" fill="#fff" d="M 444.5,37.5 C 445.952,38.3019 447.618,38.8019 449.5,39C 450.252,39.6708 450.586,40.5041 450.5,41.5C 441.167,41.5 431.833,41.5 422.5,41.5C 422.5,40.1667 422.5,38.8333 422.5,37.5C 429.833,37.5 437.167,37.5 444.5,37.5 Z"/></g>
<g><path style="opacity:1" fill="#fff" d="M 65.5,38.5 C 66.2389,38.369 66.9056,38.5357 67.5,39C 64.8333,39.6667 64.8333,40.3333 67.5,41C 67.2716,41.3988 66.9382,41.5654 66.5,41.5C 60.8333,41.5 55.1667,41.5 49.5,41.5C 49.8039,40.8501 50.1373,40.1835 50.5,39.5C 55.456,38.5059 60.456,38.1725 65.5,38.5 Z"/></g>
<g><path style="opacity:1" fill="#fff" d="M 211.5,38.5 C 212.802,40.0276 214.469,41.0276 216.5,41.5C 214.5,41.5 212.5,41.5 210.5,41.5C 210.263,40.209 210.596,39.209 211.5,38.5 Z"/></g>
<g><path style="opacity:1" fill="#fff" d="M 278.5,23.5 C 285.437,26.6386 289.104,32.1386 289.5,40C 287.737,49.2568 282.404,55.0901 273.5,57.5C 273.918,56.7784 274.584,56.2784 275.5,56C 274.833,55.6667 274.167,55.3333 273.5,55C 274.833,54.3333 276.167,53.6667 277.5,53C 276.906,52.5357 276.239,52.369 275.5,52.5C 287.409,43.6939 287.409,35.0272 275.5,26.5C 278.567,26.8795 279.567,25.8795 278.5,23.5 Z"/></g>
<g><path style="opacity:1" fill="#fff" d="M 339.5,42.5 C 339.5,47.8333 339.5,53.1667 339.5,58.5C 337.901,58.7678 336.568,58.4345 335.5,57.5C 335.5,45.8333 335.5,34.1667 335.5,22.5C 336.552,22.3505 337.552,22.5172 338.5,23C 337.296,24.3528 336.629,26.0194 336.5,28C 336.889,30.416 337.555,32.7494 338.5,35C 338.406,37.9541 337.906,38.1208 337,35.5C 336.503,37.8098 336.337,40.1432 336.5,42.5C 337.5,42.5 338.5,42.5 339.5,42.5 Z"/></g>
<g><path style="opacity:1" fill="#fff" d="M 458.5,35.5 C 458.297,37.0443 457.63,38.3777 456.5,39.5C 460.621,43.9425 461.121,48.6091 458,53.5C 456.362,55.7337 454.195,57.067 451.5,57.5C 449.897,57.6882 448.563,57.1882 447.5,56C 440.833,55.6667 434.167,55.3333 427.5,55C 435.344,54.829 443.011,54.329 450.5,53.5C 454.628,51.2487 455.961,47.9154 454.5,43.5C 454.649,40.9824 454.649,38.4824 454.5,36C 456.061,35.6824 457.228,34.8491 458,33.5C 458.464,34.0944 458.631,34.7611 458.5,35.5 Z"/></g>
<g><path style="opacity:1" fill="#fff" d="M 132.5,41.5 C 132.5,47.1667 132.5,52.8333 132.5,58.5C 130.901,58.7678 129.568,58.4345 128.5,57.5C 129.5,57.5 130.5,57.5 131.5,57.5C 131.179,51.9738 131.512,46.6405 132.5,41.5 Z"/></g>
<g><path style="opacity:1" fill="#fff" d="M 88.5,41.5 C 88.5858,42.4959 88.2524,43.3292 87.5,44C 88.1667,44.3333 88.8333,44.6667 89.5,45C 87.637,47.1178 86.9704,49.2845 87.5,51.5C 86.5448,53.7457 85.8782,56.079 85.5,58.5C 83.2495,58.8186 81.2495,58.3186 79.5,57C 82.6012,51.8267 85.6012,46.6601 88.5,41.5 Z"/></g>
<g><path style="opacity:1" fill="#fff" d="M 407.5,54.5 C 408.443,52.9988 408.109,51.6654 406.5,50.5C 408.172,47.9784 409.672,45.3118 411,42.5C 411.333,35.5 411.667,28.5 412,21.5C 413,20.1667 414,20.1667 415,21.5C 415.846,30.5531 415.513,39.5531 414,48.5C 412.465,51.2937 410.298,53.2937 407.5,54.5 Z"/></g>
<g><path style="opacity:1" fill="#fff" d="M 300.5,46.5 C 301.126,47.5289 301.959,48.5289 303,49.5C 303.383,48.944 303.883,48.6107 304.5,48.5C 301.848,54.167 297.514,57.5003 291.5,58.5C 291.351,57.448 291.517,56.448 292,55.5C 295.066,52.6043 297.899,49.6043 300.5,46.5 Z"/></g>
<g><path style="opacity:1" fill="#fff" d="M 390.5,51.5 C 390.611,52.1174 390.944,52.6174 391.5,53C 390.529,54.041 389.529,54.8743 388.5,55.5C 384.031,53.1864 381.198,49.5197 380,44.5C 379.333,36.8333 379.333,29.1667 380,21.5C 381,20.1667 382,20.1667 383,21.5C 383.098,29.5767 383.765,37.5767 385,45.5C 386.36,48.0226 388.193,50.0226 390.5,51.5 Z"/></g>
<g><path style="opacity:1" fill="#fff" d="M 380.5,22.5 C 381.816,25.0866 382.483,28.0866 382.5,31.5C 382.552,35.5872 382.052,39.5872 381,43.5C 380.5,36.5079 380.334,29.5079 380.5,22.5 Z"/></g>
<g><path style="opacity:1" fill="#fff" d="M 320.5,48.5 C 323.266,51.1637 325.933,53.997 328.5,57C 326.728,58.4868 324.728,58.8201 322.5,58C 319.619,55.7213 317.619,52.888 316.5,49.5C 316.942,48.7688 317.109,47.7688 317,46.5C 318,47.8333 319,49.1667 320,50.5C 320.464,49.9056 320.631,49.2389 320.5,48.5 Z"/></g>
<g><path style="opacity:1" fill="#fff" d="M 67.5,53.5 C 58.3483,54.4936 49.015,54.8269 39.5,54.5C 39.6107,53.8826 39.944,53.3826 40.5,53C 42.1667,52.8333 43.8333,52.6667 45.5,52.5C 52.6315,53.0169 59.9648,53.3502 67.5,53.5 Z"/></g>
<g><path style="opacity:1" fill="#fff" d="M 237.5,53.5 C 229.246,53.868 221.079,54.868 213,56.5C 211.092,53.6677 210.259,54.001 210.5,57.5C 209.156,55.8151 209.323,54.1484 211,52.5C 219.749,53.4839 228.582,53.8172 237.5,53.5 Z"/></g>
<g><path style="opacity:1" fill="#fff" d="M 371.5,40.5 C 372.258,45.1773 372.591,49.844 372.5,54.5C 371.95,58.0239 370.116,59.0239 367,57.5C 366.681,52.0246 366.514,46.6913 366.5,41.5C 368.216,41.3713 369.883,41.038 371.5,40.5 Z"/></g>
<g><path style="opacity:1" fill="#fff" d="M 175.5,50.5 C 177.812,51.3195 180.146,52.1529 182.5,53C 189.158,53.4996 195.825,53.6663 202.5,53.5C 202.5,55.1667 202.5,56.8333 202.5,58.5C 195.492,58.6663 188.492,58.4996 181.5,58C 178.719,57.4782 176.385,56.3115 174.5,54.5C 173.527,52.9317 173.36,51.265 174,49.5C 174.383,50.056 174.883,50.3893 175.5,50.5 Z"/></g>
<g><path style="opacity:1" fill="#fff" d="M 74.5,51.5 C 73.8333,54.8333 71.8333,56.8333 68.5,57.5C 62.4583,57.3114 56.4583,56.6447 50.5,55.5C 46.8098,55.692 43.1431,56.0253 39.5,56.5C 39.5,55.8333 39.5,55.1667 39.5,54.5C 49.015,54.8269 58.3483,54.4936 67.5,53.5C 67.8333,53.5 68.1667,53.5 68.5,53.5C 69.4584,53.0472 70.2917,52.3805 71,51.5C 72.2847,51.5979 73.4514,51.5979 74.5,51.5 Z"/></g>
<g><path style="opacity:1" fill="#fff" d="M 68.5,57.5 C 59.0089,58.658 49.3422,58.8246 39.5,58C 38.2617,57.31 38.2617,56.81 39.5,56.5C 43.1431,56.0253 46.8098,55.692 50.5,55.5C 56.4583,56.6447 62.4583,57.3114 68.5,57.5 Z"/></g>
<g><path style="opacity:1" fill="#fff" d="M 108.5,35.5 C 113.807,42.4454 117.807,50.112 120.5,58.5C 118.712,58.7852 117.045,58.4519 115.5,57.5C 112.805,52.4831 110.138,47.4831 107.5,42.5C 108.788,40.025 108.455,37.6917 106.5,35.5C 106.97,34.537 107.637,34.537 108.5,35.5 Z"/></g>
<g><path style="opacity:1" fill="#fff" d="M 243.5,54.5 C 242.657,56.1733 241.324,57.34 239.5,58C 229.658,58.8246 219.991,58.658 210.5,57.5C 210.259,54.001 211.092,53.6677 213,56.5C 221.079,54.868 229.246,53.868 237.5,53.5C 237.833,53.5 238.167,53.5 238.5,53.5C 239.695,53.3225 240.862,52.9891 242,52.5C 243.03,52.8361 243.53,53.5028 243.5,54.5 Z"/></g>
<g><path style="opacity:1" fill="#fff" d="M 406.5,50.5 C 408.109,51.6654 408.443,52.9988 407.5,54.5C 401.39,59.1892 395.057,59.5226 388.5,55.5C 389.529,54.8743 390.529,54.041 391.5,53C 390.944,52.6174 390.611,52.1174 390.5,51.5C 395.912,53.8286 401.245,53.4953 406.5,50.5 Z"/></g>
<g><path style="opacity:1" fill="#fff" d="M 450.5,53.5 C 443.011,54.329 435.344,54.829 427.5,55C 434.167,55.3333 440.833,55.6667 447.5,56C 448.563,57.1882 449.897,57.6882 451.5,57.5C 442.098,58.8284 432.598,58.8284 423,57.5C 422.225,55.0507 423.058,53.384 425.5,52.5C 433.604,53.2748 441.938,53.6082 450.5,53.5 Z"/></g>
</svg>
